<svg width="332.000000pt" height="85.000000pt" viewBox="0 0 332.000000 85.000000" xmlns="http://www.w3.org/2000/svg">
  <g transform="translate(0.000000,85.000000) scale(0.100000,-0.100000)" fill="#fefefe" stroke="none">
    <path d="M0 425 c0 -425 0 -425 1660 -425 1660 0 1660 0 1660 425 0 425 0 425
-1660 425 -1660 0 -1660 0 -1660 -425z m636 259 c-8 -38 -18 -86 -21 -106 -3
-21 -11 -38 -17 -38 -10 0 -6 48 9 108 7 30 -12 29 -70 -3 -41 -23 -179 -62
-280 -80 -34 -5 -38 -9 -32 -28 46 -153 20 -333 -52 -364 -43 -18 -53 -12 -17
11 44 29 64 89 64 192 0 163 -14 209 -56 177 -5 -5 -2 -1 8 8 9 9 43 19 78 22
132 14 319 96 367 161 28 38 35 17 19 -60z m543 12 c8 -9 8 -16 2 -20 -5 -4
-12 -2 -16 4 -35 56 -125 -53 -125 -152 0 -19 132 -8 161 13 34 24 90 29 113
10 49 -41 -34 -131 -120 -131 -30 0 -33 -31 -4 -60 52 -52 276 89 257 161 -4
14 0 19 14 19 16 0 19 -7 19 -50 0 -55 19 -68 38 -26 61 134 140 125 151 -17
9 -119 58 -115 118 11 38 81 104 121 164 100 25 -9 32 -7 44 8 22 31 28 9 16
-59 -20 -115 -6 -125 81 -54 62 50 112 217 65 217 -7 0 -22 6 -32 14 -16 12
-12 13 37 12 44 0 54 -3 52 -16 -27 -125 -54 -290 -49 -307 17 -70 135 28 169
140 15 48 39 17 31 -40 -15 -105 -13 -128 12 -131 41 -6 192 150 179 184 -3 9
1 14 14 14 17 0 20 -7 20 -50 0 -55 19 -68 38 -26 61 135 141 125 150 -19 7
-121 62 -113 121 19 33 75 103 113 169 92 17 -6 27 -3 37 11 21 29 27 9 16
-53 -23 -123 -9 -131 90 -53 53 43 58 45 29 15 -19 -20 -58 -53 -87 -73 -46
-31 -53 -41 -53 -69 0 -101 -102 -188 -178 -152 -63 30 -37 78 76 140 68 37
72 42 72 74 0 43 -8 43 -54 -1 -53 -50 -83 -55 -128 -23 -14 10 -22 8 -45 -14
-67 -63 -92 -41 -102 87 -5 72 -8 80 -28 83 -31 4 -133 -141 -133 -189 0 -14
-5 -19 -17 -17 -15 3 -17 12 -15 61 5 69 -3 71 -60 16 -99 -97 -168 -106 -168
-22 0 44 -16 42 -64 -7 -72 -74 -126 -60 -126 32 0 58 -3 59 -79 6 -54 -37
-61 -46 -61 -75 0 -103 -102 -188 -179 -148 -62 32 -37 74 82 139 62 35 67 40
67 72 0 43 -9 43 -52 0 -50 -50 -85 -56 -130 -24 -15 10 -22 8 -46 -15 -65
-62 -102 -23 -102 111 0 59 -1 62 -25 62 -35 0 -135 -144 -135 -195 0 -10 -7
-15 -17 -13 -15 3 -17 12 -15 61 5 70 -4 72 -65 16 -141 -129 -277 -86 -229
74 8 27 8 27 -51 27 -59 0 -59 0 -81 -117 -12 -65 -22 -126 -22 -135 0 -17
-20 -25 -32 -13 -3 3 1 38 8 78 22 113 14 124 -45 63 -59 -60 -131 -73 -146
-25 -13 40 16 179 37 179 20 0 28 -75 8 -82 -5 -1 -11 -25 -12 -53 -5 -84 68
-68 146 32 41 52 45 73 16 73 -11 0 -20 5 -20 10 0 6 13 10 28 10 27 0 30 4
41 53 22 101 118 174 160 123z m-319 -91 c-35 -26 -46 -26 -37 -1 5 12 21 19
61 25 6 0 -5 -10 -24 -24z m1545 5 c-19 -21 -45 -27 -45 -11 0 7 36 26 59 30
2 1 -4 -8 -14 -19z m-1905 -69 c0 -5 -20 -35 -45 -67 -45 -58 -55 -84 -32 -84
6 0 28 -3 48 -6 48 -8 119 50 119 97 0 24 4 29 25 29 29 0 30 -7 10 -34 -9
-12 -15 -42 -15 -74 0 -33 -4 -51 -10 -47 -5 3 -10 17 -10 31 0 31 -20 31 -58
-1 -23 -19 -29 -33 -29 -64 0 -98 -114 -184 -170 -128 -26 26 -6 66 54 107 67
45 69 63 8 58 -40 -3 -64 12 -37 24 13 6 102 116 102 127 0 10 -59 7 -97 -5
-7 -2 -13 3 -13 11 0 16 21 23 85 28 22 2 46 4 53 5 6 1 12 -2 12 -7z m448
-459 c-71 -2 -117 2 -139 10 -29 12 -21 13 75 10 94 -4 106 -2 106 13 0 14 5
13 33 -7 32 -23 32 -23 -75 -26z" />
    <path d="M1218 533 c-38 -44 -51 -103 -23 -103 46 0 108 56 103 92 -4 30 -56
38 -80 11z" />
    <path d="M1867 539 c-56 -33 -74 -151 -24 -157 34 -4 112 69 123 115 11 44
-50 70 -99 42z" />
    <path d="M2977 539 c-56 -33 -74 -151 -23 -157 32 -4 111 71 123 116 10 43
-52 69 -100 41z" />
    <path d="M2990 302 c-87 -58 -76 -131 16 -108 28 7 49 44 58 104 8 53 -1 53
-74 4z" />
    <path d="M1874 298 c-81 -55 -66 -126 22 -104 27 7 48 43 58 99 9 48 -13 50
-80 5z" />
    <path d="M398 289 c-61 -51 -69 -99 -17 -99 58 0 99 45 99 110 0 42 -24 39
-82 -11z" />
  </g>
  <g transform="translate(0.000000,85.000000) scale(0.100000,-0.100000)" fill="#6364fe" stroke="none">
    <path d="M583 735 c-65 -67 -214 -128 -340 -141 -51 -6 -72 -13 -108 -41 -70
-53 -61 -70 14 -28 23 14 44 25 46 25 9 0 26 -168 20 -207 -9 -66 -38 -128
-69 -148 -35 -23 -33 -35 7 -35 92 0 136 197 86 379 -3 10 26 19 114 37 96 19
169 44 238 81 4 2 3 -15 -2 -39 -13 -70 -11 -88 10 -88 15 0 21 10 26 43 3 23
13 72 22 109 25 108 6 124 -64 53z" />
    <path d="M1084 701 c-43 -26 -61 -55 -75 -118 -11 -48 -15 -53 -40 -53 -24 0
-39 -15 -39 -41 0 -5 12 -6 26 -3 31 8 29 2 -23 -62 -82 -102 -132 -95 -108
15 20 85 16 104 -22 99 -23 -2 -28 -8 -29 -33 -1 -16 -5 -59 -9 -96 -14 -119
65 -139 168 -41 20 20 37 34 37 32 0 -3 -7 -41 -15 -84 -16 -85 -12 -100 26
-94 19 2 23 9 25 38 5 144 37 230 85 230 48 0 48 0 37 -31 -54 -155 114 -199
257 -68 47 43 47 43 44 -16 -4 -59 -4 -60 24 -63 19 -2 27 1 27 13 0 40 99
195 125 195 12 0 15 -14 15 -62 0 -81 16 -138 38 -140 37 -3 58 4 83 28 23 22
27 23 39 9 27 -33 109 -10 149 41 21 27 21 27 21 1 0 -21 -12 -32 -67 -63
-124 -67 -152 -126 -79 -160 87 -42 196 41 196 149 0 29 7 38 60 75 60 41 60
41 60 -7 0 -104 80 -109 167 -11 22 25 22 25 23 -11 0 -89 85 -80 188 21 43
42 43 42 40 -16 -3 -58 -2 -59 25 -62 21 -3 27 1 27 17 0 22 58 126 94 168 33
38 46 23 46 -51 0 -133 45 -169 121 -99 23 21 27 22 39 8 27 -33 118 -5 155
48 15 21 15 21 15 -5 0 -22 -11 -32 -72 -66 -115 -63 -145 -127 -75 -160 85
-41 197 46 197 151 0 29 6 39 41 62 87 57 156 135 119 135 -5 0 -38 -23 -72
-50 -87 -70 -89 -69 -63 54 8 38 13 71 11 73 -6 7 -56 -16 -56 -26 0 -6 -12
-6 -32 -1 -63 19 -137 -23 -169 -96 -56 -125 -94 -131 -102 -17 -9 149 -75
163 -159 34 -28 -45 -28 -45 -28 6 0 57 -6 65 -39 56 -15 -4 -21 -11 -18 -22
6 -24 -31 -73 -98 -132 -82 -72 -85 -68 -70 74 8 67 8 67 -19 67 -17 0 -29 -7
-32 -17 -19 -64 -96 -163 -126 -163 -28 0 -28 29 3 191 33 175 33 174 -4 160
-16 -6 -38 -7 -59 0 -18 5 -34 9 -35 9 -19 0 3 -44 27 -53 34 -13 34 -13 19
-93 -13 -63 -30 -88 -91 -130 -52 -37 -56 -13 -22 132 6 25 -43 23 -53 -2 -3
-10 -11 -10 -31 -3 -61 23 -137 -22 -175 -103 -57 -120 -92 -122 -99 -7 -8
145 -78 157 -160 30 -28 -45 -28 -45 -28 6 0 57 -6 65 -39 56 -16 -4 -21 -11
-18 -25 11 -40 -144 -177 -200 -178 -15 0 -53 36 -53 50 0 6 11 10 24 10 93 0
176 105 119 151 -25 21 -96 16 -132 -10 -24 -17 -42 -21 -84 -19 -54 3 -54 3
-40 58 21 81 66 117 92 73 9 -17 11 -17 28 0 44 43 -43 75 -103 38z m203 -176
c7 -19 -21 -51 -60 -72 -33 -17 -41 -13 -33 15 18 57 78 93 93 57z m658 1 c18
-13 18 -14 -4 -49 -68 -111 -158 -109 -102 2 30 59 68 75 106 47z m1111 0 c18
-14 18 -15 -13 -58 -78 -107 -149 -99 -93 12 30 58 67 74 106 46z m-6 -233
c-13 -72 -50 -107 -96 -89 -35 14 43 110 102 126 1 0 -2 -17 -6 -37z m-1109
-6 c-12 -50 -29 -76 -56 -83 -72 -18 -72 36 -1 84 60 40 66 40 57 -1z" />
    <path d="M851 635 c-38 -13 -59 -41 -43 -57 14 -14 41 -3 75 27 46 43 34 54
-32 30z" />
    <path d="M2387 632 c-29 -11 -37 -20 -35 -35 5 -32 23 -31 62 4 56 49 46 61
-27 31z" />
    <path d="M475 559 c-11 -4 -40 -8 -65 -8 -55 -1 -66 -8 -76 -45 -6 -26 -5 -28
12 -21 83 35 103 23 56 -34 -26 -31 -50 -58 -53 -61 -35 -28 -19 -51 33 -44
53 6 53 6 1 -30 -90 -62 -103 -131 -28 -150 78 -20 189 98 161 170 -3 7 9 25
27 40 32 27 32 27 37 -2 10 -54 44 -45 38 10 -5 38 -1 53 18 82 29 42 24 54
-22 54 -31 0 -34 -3 -34 -29 0 -62 -112 -123 -157 -86 -2 1 17 28 42 60 56 72
61 115 10 94z m-5 -259 c0 -51 -44 -100 -89 -100 -36 0 -24 36 27 79 54 46 62
49 62 21z" />
    <path d="M600 308 c2 -133 137 -229 333 -236 147 -5 160 4 81 58 -48 34 -67
33 -45 -2 13 -20 12 -20 -81 -16 -142 6 -214 57 -249 176 -13 44 -39 58 -39
20z" />
  </g>
  <g transform="translate(0.000000,85.000000) scale(0.100000,-0.100000)" fill="#f4f4fe" stroke="none">
    <path d="M885 650 c-3 -5 -1 -10 6 -10 8 0 8 -4 -1 -15 -7 -8 -9 -15 -5 -15 9
0 34 31 35 43 0 11 -28 9 -35 -3z" />
    <path d="M1833 544 c-18 -14 -33 -30 -33 -36 0 -5 10 -1 23 11 12 12 31 28 42
36 11 8 16 14 10 15 -5 0 -25 -12 -42 -26z" />
    <path d="M1250 469 c-19 -16 -30 -29 -25 -29 14 0 71 47 65 53 -3 3 -21 -8
-40 -24z" />
    <path d="M1365 430 c-22 -22 -35 -40 -29 -40 13 0 79 68 73 75 -3 2 -23 -13
-44 -35z" />
    <path d="M2445 400 c-16 -17 -24 -30 -19 -30 13 0 59 48 52 55 -2 3 -17 -9
-33 -25z" />
    <path d="M210 385 c0 -19 5 -35 10 -35 6 0 10 16 10 35 0 19 -4 35 -10 35 -5
0 -10 -16 -10 -35z" />
    <path d="M1722 388 c-18 -19 -23 -20 -38 -7 -15 12 -17 12 -12 -1 7 -23 42
-23 63 0 25 27 14 35 -13 8z" />
    <path d="M930 177 c0 -8 7 -21 16 -28 14 -11 15 -10 12 11 -3 26 -28 41 -28
17z" />
    <path d="M715 150 c3 -5 1 -10 -5 -10 -6 0 -8 -4 -5 -10 3 -5 11 -10 16 -10 6
0 7 5 4 10 -3 6 -2 10 4 10 5 0 13 -4 16 -10 3 -5 12 -10 18 -10 7 0 1 9 -13
20 -27 21 -45 26 -35 10z" />
  </g>
  <g transform="translate(0.000000,85.000000) scale(0.100000,-0.100000)" fill="#d7d7fe" stroke="none">
    <path d="M1050 494 c36 -8 100 -9 100 -2 0 5 -26 7 -57 7 -32 -1 -51 -3 -43
-5z" />
  </g>
  <g transform="translate(0.000000,85.000000) scale(0.100000,-0.100000)" fill="#6a6bfe" stroke="none">
    <path d="M2954 551 c-18 -11 -35 -25 -39 -31 -14 -23 1 -17 39 16 45 39 45 42
0 15z" />
    <path d="M116 535 c-23 -17 -3 -30 24 -15 23 13 25 16 7 23 -7 3 -21 -1 -31
-8z" />
    <path d="M2825 343 c-37 -32 -37 -34 -9 -20 31 16 60 44 53 51 -2 2 -22 -12
-44 -31z" />
  </g>
  <g transform="translate(0.000000,85.000000) scale(0.100000,-0.100000)" fill="#b0b0fe" stroke="none" />
  <g transform="translate(0.000000,85.000000) scale(0.100000,-0.100000)" fill="#8989fe" stroke="none" />
  <g transform="translate(0.000000,85.000000) scale(0.100000,-0.100000)" fill="#c3c4fe" stroke="none" />
  <g transform="translate(0.000000,85.000000) scale(0.100000,-0.100000)" fill="#e1e1fe" stroke="none" />
  <g transform="translate(0.000000,85.000000) scale(0.100000,-0.100000)" fill="#9b9cfe" stroke="none" />
  <g transform="translate(0.000000,85.000000) scale(0.100000,-0.100000)" fill="#7e7ffe" stroke="none" />
  <g transform="translate(0.000000,85.000000) scale(0.100000,-0.100000)" fill="#7475fe" stroke="none" />
  <g transform="translate(0.000000,85.000000) scale(0.100000,-0.100000)" fill="#eaebfe" stroke="none">
    <path d="M940 172 c0 -14 39 -59 40 -46 0 6 -3 14 -7 18 -5 4 -8 13 -8 19 0 5
-6 12 -12 15 -7 2 -13 -1 -13 -6z" />
  </g>
  <g transform="translate(0.000000,85.000000) scale(0.100000,-0.100000)" fill="#ccccfe" stroke="none" />
  <g transform="translate(0.000000,85.000000) scale(0.100000,-0.100000)" fill="#a5a5fe" stroke="none" />
  <g transform="translate(0.000000,85.000000) scale(0.100000,-0.100000)" fill="#b9b9fe" stroke="none" />
  <g transform="translate(0.000000,85.000000) scale(0.100000,-0.100000)" fill="#9293fe" stroke="none" />
  <g transform="translate(0.000000,85.000000) scale(0.100000,-0.100000)" fill="#d3d3fe" stroke="none" />
  <g transform="translate(0.000000,85.000000) scale(0.100000,-0.100000)" fill="#6767fe" stroke="none" />
  <g transform="translate(0.000000,85.000000) scale(0.100000,-0.100000)" fill="#e6e7fe" stroke="none" />
  <g transform="translate(0.000000,85.000000) scale(0.100000,-0.100000)" fill="#6f70fe" stroke="none" />
  <g transform="translate(0.000000,85.000000) scale(0.100000,-0.100000)" fill="#7b7cfe" stroke="none" />
  <g transform="translate(0.000000,85.000000) scale(0.100000,-0.100000)" fill="#dbdbfe" stroke="none" />
  <g transform="translate(0.000000,85.000000) scale(0.100000,-0.100000)" fill="#9697fe" stroke="none" />
  <g transform="translate(0.000000,85.000000) scale(0.100000,-0.100000)" fill="#8384fe" stroke="none" />
  <g transform="translate(0.000000,85.000000) scale(0.100000,-0.100000)" fill="#dedffe" stroke="none" />
  <g transform="translate(0.000000,85.000000) scale(0.100000,-0.100000)" fill="#8e8ffe" stroke="none" />
  <g transform="translate(0.000000,85.000000) scale(0.100000,-0.100000)" fill="#aaaafe" stroke="none" />
  <g transform="translate(0.000000,85.000000) scale(0.100000,-0.100000)" fill="#9fa0fe" stroke="none" />
  <g transform="translate(0.000000,85.000000) scale(0.100000,-0.100000)" fill="#8687fe" stroke="none" />
  <g transform="translate(0.000000,85.000000) scale(0.100000,-0.100000)" fill="#7778fe" stroke="none" />
  <g transform="translate(0.000000,85.000000) scale(0.100000,-0.100000)" fill="#aeaffe" stroke="none" />
  <g transform="translate(0.000000,85.000000) scale(0.100000,-0.100000)" fill="#0000ff" stroke="none" />
  <g transform="translate(0.000000,85.000000) scale(0.100000,-0.100000)" fill="#0000cc" stroke="none" />
  <g transform="translate(0.000000,85.000000) scale(0.100000,-0.100000)" fill="#000099" stroke="none" />
  <g transform="translate(0.000000,85.000000) scale(0.100000,-0.100000)" fill="#000066" stroke="none" />
  <g transform="translate(0.000000,85.000000) scale(0.100000,-0.100000)" fill="#000033" stroke="none" />
  <g transform="translate(0.000000,85.000000) scale(0.100000,-0.100000)" fill="#000000" stroke="none" />
  <g transform="translate(0.000000,85.000000) scale(0.100000,-0.100000)" fill="#000000" stroke="none" />
  <g transform="translate(0.000000,85.000000) scale(0.100000,-0.100000)" fill="#000000" stroke="none" />
  <g transform="translate(0.000000,85.000000) scale(0.100000,-0.100000)" fill="#000000" stroke="none" />
  <g transform="translate(0.000000,85.000000) scale(0.100000,-0.100000)" fill="#003300" stroke="none" />
  <g transform="translate(0.000000,85.000000) scale(0.100000,-0.100000)" fill="#000000" stroke="none" />
  <g transform="translate(0.000000,85.000000) scale(0.100000,-0.100000)" fill="#000000" stroke="none" />
  <g transform="translate(0.000000,85.000000) scale(0.100000,-0.100000)" fill="#000000" stroke="none" />
  <g transform="translate(0.000000,85.000000) scale(0.100000,-0.100000)" fill="#000000" stroke="none" />
  <g transform="translate(0.000000,85.000000) scale(0.100000,-0.100000)" fill="#000000" stroke="none" />
  <g transform="translate(0.000000,85.000000) scale(0.100000,-0.100000)" fill="#003333" stroke="none" />
</svg>